<?xml version="1.0" encoding="UTF-8" standalone="no"?>
<!-- Created with Inkscape (http://www.inkscape.org/) -->

<svg
   version="1.1"
   id="svg1"
   width="419.58237"
   height="558.0191"
   viewBox="0 0 419.58238 558.0191"
   sodipodi:docname="astroforge-high-resolution-Icon-transparent.svg"
   inkscape:version="1.4.3 (0d15f75, 2025-12-25)"
   inkscape:export-filename="astroforge-high-resolution-logo-transparent.png"
   inkscape:export-xdpi="96"
   inkscape:export-ydpi="96"
   xmlns:inkscape="http://www.inkscape.org/namespaces/inkscape"
   xmlns:sodipodi="http://sodipodi.sourceforge.net/DTD/sodipodi-0.dtd"
   xmlns="http://www.w3.org/2000/svg"
   xmlns:svg="http://www.w3.org/2000/svg">
  <defs
     id="defs1" />
  <sodipodi:namedview
     id="namedview1"
     pagecolor="#505050"
     bordercolor="#eeeeee"
     borderopacity="1"
     inkscape:showpageshadow="0"
     inkscape:pageopacity="0"
     inkscape:pagecheckerboard="0"
     inkscape:deskcolor="#505050"
     inkscape:zoom="1.28"
     inkscape:cx="164.84375"
     inkscape:cy="413.67188"
     inkscape:window-width="2560"
     inkscape:window-height="1351"
     inkscape:window-x="-9"
     inkscape:window-y="-9"
     inkscape:window-maximized="1"
     inkscape:current-layer="g1" />
  <g
     inkscape:groupmode="layer"
     inkscape:label="Image"
     id="g1"
     transform="translate(0.1050522,-1.1996788)">
    <path
       style="fill:#00ffff;fill-opacity:1;stroke:none"
       d="m 209.01543,1.2222097 c -11.3783,0.97273 -19.98033,32.3927803 -24.36007,41.4444503 -21.15552,43.72241 -42.3652,87.6357 -62.13683,132 -29.9796,67.26928 -64.630781,132.49886 -94.08437,199.99999 -7.058324,16.17611 -15.146948,31.95703 -22.512348,48 -2.6852391,5.84888 -8.0090481,13.13208 -5.2602891,19.86011 3.756047,9.19344 23.9756401,15.95451 32.3384791,20.54728 29.831239,16.38302 59.699908,32.74862 89.333338,49.49178 20.36521,11.50651 40.99699,22.54394 61.33333,34.10083 7.12301,4.04793 18.15745,13.07047 26.66667,12.52881 14.70007,-0.93579 33.8619,-17.25814 46.66667,-24.22119 38.82054,-21.11011 77.58,-42.474 116,-64.30762 11.48861,-6.52881 23.17123,-12.71606 34.66667,-19.2325 4.7808,-2.71008 11.11792,-5.25912 11.74487,-11.45475 0.77454,-7.6543 -5.48165,-17.32093 -8.75309,-23.97941 -8.23865,-16.76835 -15.84204,-33.8468 -23.98047,-50.66667 C 357.58457,305.20535 330.44007,244.13191 301.34466,183.99999 278.92581,137.66666 256.43379,91.01342 235.48149,44 231.45264,34.95996 221.09579,0.18944974 209.01543,1.2222097 M 210.33334,28 l 139.07821,295.99999 37.24691,78.66666 13.63375,31.71607 -20.62553,14.17899 -62.66667,34.67078 -73.33334,40.76749 -33.33333,17.29118 -14.66667,-6.31689 -36,-20 -141.333335,-78.97428 43.588482,-94.66667 84.066873,-178.66666 43.30349,-92 L 210.33334,28 m -1.33333,87.99999 -92.34465,197.33333 -40.98869,88 c 33.61153,14.4834 65.16522,36.14835 97.33334,53.64095 9.45459,5.14127 26.40517,19.47892 37.33333,18.86832 11.61072,-0.64876 27.1908,-13.96818 37.33334,-19.48356 31.94232,-17.36983 63.06498,-37.64868 96,-53.02571 l -28.9218,-62.66667 -61.40023,-130.66666 -30.68107,-65.33333 -13.66357,-26.66667"
       id="path13"
       sodipodi:nodetypes="cssssssssssssssssscccccccccccccccccccsssccccc" />
  </g>
</svg>
